<svg width="21" height="20" viewBox="0 0 21 20" fill="none" xmlns="http://www.w3.org/2000/svg">
<path fill-rule="evenodd" clip-rule="evenodd" d="M2.16667 10C2.16667 5.67888 5.45556 2.12592 9.66667 1.70781V10.3452L15.774 16.4525C14.337 17.6286 12.5014 18.3333 10.5 18.3333C5.89763 18.3333 2.16667 14.6024 2.16667 10ZM16.9573 17.6359C15.2156 19.1101 12.9611 20 10.5 20C4.97715 20 0.5 15.5228 0.5 10C0.5 4.75778 4.53372 0.457687 9.66667 0.0342281V0H10.5H11.3333V0.0342282C16.4663 0.457688 20.5 4.75778 20.5 10C20.5 12.4611 19.6101 14.7156 18.1359 16.4573L18.1603 16.4818L17.5711 17.071C17.5711 17.0711 17.5711 17.0711 17.5711 17.0711L16.9818 17.6603L16.9573 17.6359ZM16.9525 15.274C18.1286 13.837 18.8333 12.0014 18.8333 10C18.8333 5.67888 15.5444 2.12592 11.3333 1.70781V9.65482L16.9525 15.274Z" fill="#7D7D7D"/>
</svg>
