<svg width="28" height="29" viewBox="0 0 28 29" fill="none" xmlns="http://www.w3.org/2000/svg">
<path fill-rule="evenodd" clip-rule="evenodd" d="M2 14.5C2 7.87258 7.37258 2.5 14 2.5C20.6274 2.5 26 7.87258 26 14.5C26 21.1274 20.6274 26.5 14 26.5C7.37258 26.5 2 21.1274 2 14.5Z" fill="#00AC8D"/>
<path d="M12.5535 17.0593L19.0048 10.3045C19.3926 9.89849 20.0213 9.89849 20.4091 10.3045C20.7969 10.7105 20.7969 11.3689 20.4091 11.7749L12.5535 20L7.99079 15.2227C7.603 14.8167 7.603 14.1584 7.99079 13.7524C8.37858 13.3464 9.00731 13.3464 9.3951 13.7524L12.5535 17.0593Z" fill="white"/>
</svg>
