<svg width="20" height="20" viewBox="0 0 20 20" fill="none" xmlns="http://www.w3.org/2000/svg">
<path fill-rule="evenodd" clip-rule="evenodd" d="M19.0294 0.970536C20.3235 2.26458 20.3235 4.36265 19.0294 5.6567L6.7274 17.9579L0.568339 20L0 19.4317L2.04093 13.2717L14.3429 0.970536C15.6371 -0.323512 17.7353 -0.323512 19.0294 0.970536ZM15.5145 6.82824L13.1713 4.48516L3.49022 14.1656L2.32915 17.6697L5.83463 16.5075L15.5145 6.82824ZM17.8578 2.14208C17.2401 1.52446 16.2562 1.49639 15.6052 2.05786L15.5145 2.14208L14.3429 3.31362L16.6862 5.6567L17.8578 4.48516C18.4754 3.86754 18.5035 2.88364 17.942 2.23272L17.8578 2.14208Z" fill="#7D7D7D"/>
</svg>
