<svg width="76" height="80" viewBox="0 0 76 80" fill="none" xmlns="http://www.w3.org/2000/svg">
<path fill-rule="evenodd" clip-rule="evenodd" d="M12.9659 26.6666L0.580566 26.6666V76.6666H19.1586V72.1588L27.5592 75.7332C29.0087 76.35 30.5532 76.6666 32.1118 76.6666H59.241C63.513 76.6666 67.2342 73.5299 68.2589 69.0651L75.1436 39.0651C76.5905 32.7604 72.1583 26.6666 66.1258 26.6666H44.8676L48.267 11.5706C49.2119 7.37468 46.2592 3.33331 42.2487 3.33331H35.7079C33.8558 3.33331 32.1008 4.22579 30.9245 5.76594L14.9613 26.6666H12.9659ZM19.1586 31.6681V64.9902L29.8355 69.5333C30.5602 69.8416 31.3325 70 32.1118 70H59.241C60.665 70 61.9054 68.9544 62.2469 67.4661L69.1317 37.4661C69.614 35.3646 68.1366 33.3333 66.1258 33.3333H36.9943L42.2487 9.99998L35.7079 9.99998L19.1586 31.6681ZM12.9659 69.5238V33.3333H9.86958H6.77324V70H12.9659L12.9659 69.5238Z" fill="#00AC8D"/>
</svg>
