<svg width="390" height="844" viewBox="0 0 390 844" fill="none" xmlns="http://www.w3.org/2000/svg">
<rect width="390" height="844" fill="#171717"/>
<path d="M139 386.273L180.358 457.759L196.475 448.473L155.118 376.986L139 386.273ZM139 386.273L210.634 345L219.939 361.084L148.306 402.357L139 386.273ZM251 457.727L209.642 386.241L193.525 395.527L234.882 467.014L251 457.727ZM251 457.727L179.366 499L170.061 482.916L241.694 441.643L251 457.727Z" stroke="#008B72" stroke-opacity="0.34" stroke-width="5"/>
<path d="M137 383.273L178.358 454.759L194.475 445.473L153.118 373.986L137 383.273ZM137 383.273L208.634 342L217.939 358.084L146.306 399.357L137 383.273ZM249 454.727L207.642 383.241L191.525 392.527L232.882 464.014L249 454.727ZM249 454.727L177.366 496L168.061 479.916L239.694 438.643L249 454.727Z" stroke="#00AC8D" stroke-width="5"/>
</svg>
